<svg width="349" height="487" viewBox="0 0 349 487" fill="none" xmlns="http://www.w3.org/2000/svg">
<path d="M349 10.5005V418.975L280.661 487H10.5162C4.71754 487 0 482.304 0 476.5V10.5005C0 4.69586 4.71754 0 10.5162 0H338.451C344.25 0 349 4.69586 349 10.5005Z" fill="#EBF6FF"/>
<path opacity="0.6" d="M349 28.3382V418.975L280.661 487H10.5162C4.71754 487 0 482.304 0 476.499V28.3382H349Z" fill="white"/>
<path opacity="0.5" d="M349 418.975L280.661 487V418.975H349Z" fill="#EBF6FF"/>
<path d="M207.867 61.5745H141.133C139.325 61.5745 137.857 60.1136 137.857 58.3135C137.857 56.5134 139.325 55.0525 141.133 55.0525H207.867C209.675 55.0525 211.143 56.5134 211.143 58.3135C211.143 60.1136 209.675 61.5745 207.867 61.5745Z" fill="#D3F1FD"/>
<path d="M235.274 79.3895H113.726C111.917 79.3895 110.449 77.9285 110.449 76.1284C110.449 74.3284 111.917 72.8674 113.726 72.8674H235.274C237.083 72.8674 238.55 74.3284 238.55 76.1284C238.55 77.9285 237.083 79.3895 235.274 79.3895Z" fill="#D3F1FD"/>
<path d="M208.833 97.2043H140.167C138.358 97.2043 136.891 95.7434 136.891 93.9433C136.891 92.1432 138.358 90.6823 140.167 90.6823H208.836C210.645 90.6823 212.113 92.1432 212.113 93.9433C212.109 95.7434 210.645 97.2043 208.833 97.2043Z" fill="#D3F1FD"/>
<path d="M314.1 144.368H74.8812C73.0728 144.368 71.6051 142.907 71.6051 141.107C71.6051 139.307 73.0728 137.846 74.8812 137.846H314.1C315.908 137.846 317.376 139.307 317.376 141.107C317.376 142.907 315.908 144.368 314.1 144.368Z" fill="#D3F1FD"/>
<path d="M274.116 215.628H34.9C33.0916 215.628 31.6239 214.167 31.6239 212.367C31.6239 210.567 33.0916 209.106 34.9 209.106H274.116C275.924 209.106 277.392 210.567 277.392 212.367C277.392 214.17 275.924 215.628 274.116 215.628Z" fill="#D3F1FD"/>
<path d="M314.1 162.183H34.9C33.0916 162.183 31.6239 160.722 31.6239 158.922C31.6239 157.122 33.0916 155.661 34.9 155.661H314.1C315.908 155.661 317.376 157.122 317.376 158.922C317.376 160.722 315.908 162.183 314.1 162.183Z" fill="#D3F1FD"/>
<path d="M314.1 179.998H34.9C33.0916 179.998 31.6239 178.537 31.6239 176.737C31.6239 174.937 33.0916 173.476 34.9 173.476H314.1C315.908 173.476 317.376 174.937 317.376 176.737C317.376 178.537 315.908 179.998 314.1 179.998Z" fill="#D3F1FD"/>
<path d="M314.1 197.813H34.9C33.0916 197.813 31.6239 196.352 31.6239 194.552C31.6239 192.752 33.0916 191.291 34.9 191.291H314.1C315.908 191.291 317.376 192.752 317.376 194.552C317.376 196.352 315.908 197.813 314.1 197.813Z" fill="#D3F1FD"/>
<path d="M314.1 323.721H74.8812C73.0728 323.721 71.6051 322.263 71.6051 320.46C71.6051 318.657 73.0728 317.199 74.8812 317.199H314.1C315.908 317.199 317.376 318.657 317.376 320.46C317.376 322.263 315.908 323.721 314.1 323.721Z" fill="#D3F1FD"/>
<path d="M274.116 394.984H34.9C33.0916 394.984 31.6239 393.526 31.6239 391.723C31.6239 389.92 33.0916 388.462 34.9 388.462H274.116C275.924 388.462 277.392 389.92 277.392 391.723C277.392 393.526 275.924 394.984 274.116 394.984Z" fill="#D3F1FD"/>
<path d="M314.1 341.539H34.9C33.0916 341.539 31.6239 340.081 31.6239 338.278C31.6239 336.475 33.0916 335.017 34.9 335.017H314.1C315.908 335.017 317.376 336.475 317.376 338.278C317.376 340.081 315.908 341.539 314.1 341.539Z" fill="#D3F1FD"/>
<path d="M314.1 359.354H34.9C33.0916 359.354 31.6239 357.896 31.6239 356.093C31.6239 354.29 33.0916 352.832 34.9 352.832H314.1C315.908 352.832 317.376 354.29 317.376 356.093C317.376 357.896 315.908 359.354 314.1 359.354Z" fill="#D3F1FD"/>
<path d="M314.1 377.169H34.9C33.0916 377.169 31.6239 375.711 31.6239 373.908C31.6239 372.105 33.0916 370.647 34.9 370.647H314.1C315.908 370.647 317.376 372.105 317.376 373.908C317.376 375.711 315.908 377.169 314.1 377.169Z" fill="#D3F1FD"/>
<path d="M314.1 54.4068H280.583V98.8251H314.1V54.4068Z" fill="#EBF6FF"/>
<path d="M53.4786 91.3932C63.7393 91.3932 72.0572 83.1135 72.0572 72.9C72.0572 62.6865 63.7393 54.4068 53.4786 54.4068C43.2179 54.4068 34.9 62.6865 34.9 72.9C34.9 83.1135 43.2179 91.3932 53.4786 91.3932Z" fill="#EBF6FF"/>
<path d="M33.8353 238.938C33.8353 241.09 35.588 242.835 37.7502 242.835C39.9124 242.835 41.6651 241.09 41.6651 238.938C41.6651 236.786 39.9124 235.041 37.7502 235.041C35.588 235.041 33.8353 236.786 33.8353 238.938Z" fill="#D3F1FD"/>
<path d="M33.8353 256.753C33.8353 258.905 35.588 260.65 37.7502 260.65C39.9124 260.65 41.6651 258.905 41.6651 256.753C41.6651 254.601 39.9124 252.856 37.7502 252.856C35.588 252.856 33.8353 254.601 33.8353 256.753Z" fill="#D3F1FD"/>
<path d="M33.8353 274.568C33.8353 276.72 35.588 278.465 37.7502 278.465C39.9124 278.465 41.6651 276.72 41.6651 274.568C41.6651 272.415 39.9124 270.671 37.7502 270.671C35.588 270.671 33.8353 272.415 33.8353 274.568Z" fill="#D3F1FD"/>
<path d="M33.8353 292.383C33.8353 294.535 35.588 296.28 37.7502 296.28C39.9124 296.28 41.6651 294.535 41.6651 292.383C41.6651 290.23 39.9124 288.486 37.7502 288.486C35.588 288.486 33.8353 290.23 33.8353 292.383Z" fill="#D3F1FD"/>
<path d="M93.9316 242.199H51.2804C49.472 242.199 48.0043 240.738 48.0043 238.938C48.0043 237.138 49.472 235.677 51.2804 235.677H93.9316C95.7399 235.677 97.2076 237.138 97.2076 238.938C97.2076 240.738 95.7399 242.199 93.9316 242.199Z" fill="#D3F1FD"/>
<path d="M133.916 260.014H51.2804C49.472 260.014 48.0043 258.553 48.0043 256.753C48.0043 254.953 49.472 253.492 51.2804 253.492H133.916C135.724 253.492 137.192 254.953 137.192 256.753C137.192 258.553 135.728 260.014 133.916 260.014Z" fill="#D3F1FD"/>
<path d="M84.7749 277.829H51.2804C49.472 277.829 48.0043 276.371 48.0043 274.568C48.0043 272.764 49.472 271.307 51.2804 271.307H84.7749C86.5833 271.307 88.051 272.764 88.051 274.568C88.051 276.371 86.5866 277.829 84.7749 277.829Z" fill="#D3F1FD"/>
<path d="M120.812 295.644H51.2804C49.472 295.644 48.0043 294.186 48.0043 292.383C48.0043 290.579 49.472 289.122 51.2804 289.122H120.812C122.62 289.122 124.088 290.579 124.088 292.383C124.088 294.186 122.623 295.644 120.812 295.644Z" fill="#D3F1FD"/>
<path opacity="0.2" d="M314.1 54.4068L280.583 98.8251H314.1V54.4068Z" fill="#00C1EB"/>
<g clip-path="url(#clip0)">
<path d="M53.2077 71.0675C53.2304 71.6377 54.1101 71.6377 54.1362 71.0675V64.9109C54.1362 63.9388 53.8915 63.2952 53.5706 62.8707C53.5706 62.8707 53.5706 62.8691 53.5691 62.8691C53.1752 62.413 52.6569 62.1445 52.1124 62.0456C50.8112 61.8071 49.3579 62.5272 49.0857 63.9313C47.1202 63.5294 45.2812 65.2184 45.7009 67.0411C43.8796 68.0356 43.4081 70.4224 44.7513 71.9437C42.2221 73.5128 42.4814 77.1747 45.2132 78.4259C45.1305 79.3079 45.4417 80.196 46.0639 80.8651C46.5468 81.3856 47.1916 81.7532 47.9013 81.9212C48.5542 83.9029 51.0463 84.5331 52.704 83.5294V83.5278C52.9113 83.4034 53.1059 83.2533 53.2808 83.0762C53.2857 83.0717 53.2906 83.0656 53.2954 83.0611C53.6908 82.6321 54.1364 81.8655 54.1364 80.5933V74.9365C54.1105 74.3664 53.2306 74.3664 53.2079 74.9365V81.0602C53.2079 82.2123 52.1935 83.1498 50.9492 83.1498C49.8766 83.1498 48.9464 82.4448 48.7359 81.4712C48.6986 81.2957 48.5464 81.1591 48.3552 81.1306C47.0767 80.9416 46.1419 79.9246 46.1289 78.7364C46.1289 78.6899 46.1306 78.6434 46.1321 78.5969H46.1338C46.1289 78.3914 46.0819 78.0118 45.8114 77.7372C45.0661 77.4358 44.4941 76.8941 44.1829 76.2324C44.0712 75.9969 43.9917 75.7463 43.9512 75.4868H43.961C43.7795 74.4576 44.1976 73.8457 44.1976 73.8457C44.4536 73.3236 44.8717 72.8796 45.416 72.5705C45.4321 72.5599 45.4775 72.5301 45.497 72.5105L45.5585 72.4565C45.5731 72.443 45.5877 72.428 45.6007 72.4129C45.8065 72.1864 45.8372 71.8653 45.6817 71.6118H45.6736C45.6526 71.5923 45.6314 71.5727 45.6119 71.5533C45.5407 71.4842 45.4758 71.4124 45.4158 71.3372C45.4012 71.3191 45.3866 71.3013 45.3736 71.2816C45.3688 71.2771 45.3639 71.2712 45.3607 71.2652C44.489 70.0889 44.9168 68.3473 46.3507 67.6888C46.3507 67.6888 46.8982 67.3842 46.6019 66.8278C46.3929 65.7523 47.3228 64.726 48.5074 64.7366C48.7893 64.7366 49.0615 64.7921 49.3159 64.9001C49.4585 64.9617 49.6271 64.9511 49.7598 64.8716C49.8927 64.7937 49.9737 64.6571 49.9737 64.5101V64.3497C50.0627 62.3635 53.1186 62.3665 53.2079 64.3497V71.0675H53.2077Z" fill="#1BC0E7"/>
<path d="M51.5497 67.5194C51.0102 66.1738 48.8713 66.4963 48.8422 67.95C48.873 69.4051 51.0119 69.7262 51.5497 68.3806H53.3113V67.5196H51.5497V67.5194ZM50.2354 68.3806C49.6198 68.3567 49.6198 67.5436 50.2354 67.5196C50.4915 67.5196 50.7005 67.7131 50.7005 67.9502C50.7005 68.1871 50.4915 68.3806 50.2354 68.3806Z" fill="#1BC0E7"/>
<path d="M59.3422 82.8075C59.3097 82.8001 59.2741 82.7969 59.2402 82.7969C59.1592 82.7969 59.0829 82.8163 59.0166 82.8495C59.0134 82.8511 59.0085 82.854 59.0051 82.8556C58.7539 82.9951 58.472 83.0882 58.1739 83.1286C58.0686 83.1421 57.9617 83.1496 57.8532 83.1496C56.6089 83.1496 55.596 82.212 55.596 81.06V74.9361C55.5716 74.3659 54.6919 74.3659 54.6675 74.9361V80.5933C54.6675 81.8654 55.1131 82.6321 55.507 83.0611C55.5119 83.0656 55.5167 83.0717 55.5231 83.0762C55.6982 83.2532 55.8926 83.4032 56.0999 83.5278V83.5294C56.944 84.0408 58.0054 84.128 58.9305 83.8279C59.0827 83.7784 59.2319 83.7184 59.3744 83.6479C59.389 83.6418 59.4019 83.6344 59.4149 83.6285L59.3422 82.8075Z" fill="#2C8DB4"/>
<path d="M59.7087 83.2315C59.7087 83.4273 59.5682 83.5936 59.3753 83.6474C59.3326 83.6593 59.2869 83.6656 59.2398 83.6656C58.9812 83.6656 58.7707 83.4707 58.7707 83.2313C58.7707 83.0709 58.8648 82.9304 59.0051 82.856C59.009 82.8531 59.0126 82.8515 59.0164 82.8497C59.0831 82.816 59.1586 82.7969 59.2398 82.7969C59.275 82.7969 59.3098 82.8005 59.3426 82.8073C59.5523 82.8511 59.7087 83.024 59.7087 83.2315Z" fill="#2C8DB4"/>
<path d="M59.3746 62.3647C59.2319 62.2942 59.0829 62.2342 58.9307 62.1847C58.0056 61.8846 56.9442 61.9731 56.1001 62.4832V62.4848C55.8928 62.6092 55.6982 62.7594 55.5233 62.9364C55.5167 62.9407 55.5116 62.9466 55.507 62.9511C55.1131 63.3802 54.6675 64.1468 54.6675 65.4188V71.0759C54.6919 71.6461 55.5716 71.6461 55.596 71.0759V64.9524C55.596 63.8004 56.6086 62.8628 57.8532 62.8628C57.9617 62.8628 58.0688 62.8703 58.1739 62.8854C58.4673 62.9244 58.7444 63.0159 58.9922 63.1509C58.9954 63.1525 59.0002 63.1554 59.0036 63.157C59.0068 63.1599 59.0117 63.1615 59.0151 63.1631C59.0814 63.1976 59.156 63.2155 59.237 63.2155C59.2726 63.2155 59.3068 63.2125 59.339 63.2051C59.3407 63.2051 59.3407 63.2051 59.3422 63.2035L59.4151 62.3859C59.4022 62.378 59.3892 62.3706 59.3746 62.3647Z" fill="#2C8DB4"/>
<path d="M59.703 62.7837C59.703 62.589 59.5633 62.4237 59.3714 62.3704C59.329 62.3584 59.2835 62.3521 59.2368 62.3521C58.9797 62.3521 58.7707 62.5456 58.7707 62.7837C58.7707 62.9431 58.8642 63.0826 59.0039 63.1566C59.0075 63.1595 59.0113 63.1611 59.0149 63.1629C59.0812 63.1964 59.1563 63.2153 59.2368 63.2153C59.2718 63.2153 59.3064 63.212 59.339 63.2051C59.5474 63.1617 59.703 62.9898 59.703 62.7837Z" fill="#2C8DB4"/>
<path d="M58.2486 80.7379C58.0476 80.7379 57.871 80.6091 57.8263 80.4248L56.119 73.4007H53.5228C53.2835 73.4007 53.0897 73.2211 53.0897 72.9997C53.0897 72.7783 53.2837 72.5987 53.5228 72.5987H56.4654C56.668 72.5987 56.8435 72.7286 56.8881 72.9118L58.0069 77.5152L58.8044 65.8042C58.8182 65.603 58.9909 65.4427 59.208 65.4293C59.4236 65.4162 59.6192 65.554 59.6616 65.7516L61.08 72.3875L61.5606 74.3314L62.2357 70.8355C62.2726 70.6443 62.4524 70.505 62.662 70.505H64.5665C64.8058 70.505 64.9996 70.6845 64.9996 70.9059C64.9996 71.1275 64.8056 71.3069 64.5665 71.3069H63.0247L62.0392 76.41C62.003 76.5976 61.8292 76.7358 61.6233 76.7403C61.4171 76.745 61.2367 76.6147 61.1907 76.4288L60.2342 72.5608C60.2331 72.5569 60.2323 72.5532 60.2314 72.5493L59.4592 68.936L58.6812 80.362C58.6676 80.5612 58.4981 80.7208 58.2831 80.7367C58.2715 80.7375 58.26 80.7379 58.2486 80.7379Z" fill="#1BC0E7"/>
<path d="M45.4155 71.3372L45.6814 71.6117L45.5485 71.8573L45.2438 71.4804L45.4155 71.3372Z" fill="#1BC0E7"/>
<path d="M47.062 71.5533H45.3961C45.4107 71.4618 45.2231 71.3703 45.2458 71.2816C45.2409 71.2771 45.4594 71.8953 45.4563 71.8893C45.3833 72.1683 45.3214 71.9326 45.4058 72.4127H47.062C47.6 73.7599 49.7387 73.4374 49.7695 71.9821C49.7387 70.5285 47.6 70.2061 47.062 71.5533ZM48.3761 72.4129C48.12 72.4129 47.911 72.2194 47.911 71.9823C47.911 71.7452 48.12 71.5533 48.3761 71.5533C48.9919 71.5756 48.9919 72.3888 48.3761 72.4129Z" fill="#1BC0E7"/>
<path d="M45.3604 71.2651C45.3604 71.2651 45.5457 71.5533 45.9962 71.5533C46.4466 71.5533 46.0805 72.1648 46.0805 72.1648L45.9033 72.4129C45.9033 72.4129 45.6527 72.4121 45.3608 72.6023C45.1277 72.754 45.1478 72.1381 45.1478 72.1381L45.9237 72.0439L45.3604 71.2651Z" fill="#1BC0E7"/>
<path d="M51.7875 75.9765C51.7129 74.2662 49.0784 74.2649 49.0023 75.9765C49.0023 76.296 49.1272 76.5887 49.3362 76.8136L48.7723 77.7182H45.671C45.6661 77.9237 45.6191 78.3032 45.3486 78.5778H49.0413C49.2067 78.5778 49.3606 78.4968 49.4432 78.3633L50.14 77.2456C50.9822 77.3971 51.7973 76.7732 51.7875 75.9765ZM50.8591 75.9765C50.8591 76.2136 50.6517 76.4071 50.394 76.4071C50.1379 76.4071 49.9306 76.2136 49.9306 75.9765C49.9567 75.4064 50.8332 75.4064 50.8591 75.9765Z" fill="#1BC0E7"/>
</g>
<defs>
<clipPath id="clip0">
<rect width="22" height="22" fill="white" transform="translate(43 62)"/>
</clipPath>
</defs>
</svg>
