<svg width="23" height="23" viewBox="0 0 23 23" fill="none" xmlns="http://www.w3.org/2000/svg">
<path d="M11.3176 22.864C5.0768 22.864 0 17.7872 0 11.5468C0 5.30647 5.0768 0.229248 11.3176 0.229248C17.558 0.229248 22.6348 5.30605 22.6348 11.5468C22.6348 17.7872 17.558 22.864 11.3176 22.864ZM11.3176 1.44506C5.74732 1.44506 1.21581 5.97657 1.21581 11.5468C1.21581 17.1167 5.74732 21.6482 11.3176 21.6482C16.8874 21.6482 21.4194 17.1167 21.4194 11.5468C21.4189 5.97657 16.8874 1.44506 11.3176 1.44506Z" fill="#00C1EB"/>
<path fill-rule="evenodd" clip-rule="evenodd" d="M9.54278 11.5999V18.1591C9.54278 18.2533 9.6195 18.33 9.71363 18.33H12.1494C12.2439 18.33 12.3202 18.2537 12.3202 18.1591V11.4933H14.0863C14.1751 11.4933 14.2489 11.4253 14.2567 11.337L14.4268 9.32833C14.4351 9.22881 14.3567 9.14297 14.2563 9.14297H12.3207V7.71775C12.3207 7.38395 12.5914 7.11317 12.9252 7.11317H14.2862C14.3807 7.11317 14.457 7.03645 14.457 6.94232V4.93366C14.457 4.83911 14.3807 4.76282 14.2862 4.76282H11.9864C10.6367 4.76282 9.54278 5.85672 9.54278 7.20647V9.14297H8.3249C8.23077 9.14297 8.15405 9.21969 8.15405 9.31382V11.3225C8.15405 11.4166 8.23035 11.4933 8.3249 11.4933H9.54278V11.5999Z" fill="#00C1EB"/>
</svg>
