<svg width="23" height="23" viewBox="0 0 23 23" fill="none" xmlns="http://www.w3.org/2000/svg">
<path d="M11.2807 22.9999C5.08098 22.9999 0.0373535 17.9559 0.0373535 11.7565C0.0373535 5.55681 5.0814 0.513184 11.2807 0.513184C17.4804 0.513184 22.5241 5.55723 22.5241 11.7565C22.5245 17.9559 17.4804 22.9999 11.2807 22.9999ZM11.2807 1.58096C5.66981 1.58096 1.10513 6.14564 1.10513 11.7565C1.10513 17.3674 5.66981 21.9321 11.2807 21.9321C16.8916 21.9321 21.4563 17.3674 21.4563 11.7565C21.4563 6.14523 16.8916 1.58096 11.2807 1.58096ZM15.072 7.19434C14.6126 7.19434 14.2402 7.56672 14.2402 8.02617C14.2402 8.48562 14.6126 8.858 15.072 8.858C15.5315 8.858 15.9039 8.48562 15.9039 8.02617C15.9039 7.56672 15.5315 7.19434 15.072 7.19434ZM11.3732 8.26129C9.44621 8.26129 7.87834 9.82915 7.87834 11.7561C7.87834 13.6831 9.44621 15.251 11.3732 15.251C13.3002 15.251 14.868 13.6831 14.868 11.7561C14.868 9.82915 13.3002 8.26129 11.3732 8.26129ZM11.3732 13.9949C10.1387 13.9949 9.13438 12.9906 9.13438 11.7561C9.13438 10.5217 10.1387 9.51732 11.3732 9.51732C12.6077 9.51732 13.612 10.5217 13.612 11.7561C13.612 12.9906 12.6077 13.9949 11.3732 13.9949ZM18.4251 8.85178C18.4251 6.4977 16.5163 4.58897 14.1623 4.58897H8.53601C6.18152 4.58897 4.2732 6.49728 4.2732 8.85178V14.4784C4.2732 16.8325 6.18193 18.7412 8.53601 18.7412H14.1623C16.5167 18.7412 18.4251 16.8329 18.4251 14.4784V8.85178ZM17.0902 14.4784C17.0902 16.0952 15.7795 17.406 14.1623 17.406H8.53601C6.9188 17.406 5.60803 16.0952 5.60803 14.4784V8.85178C5.60803 7.23498 6.9188 5.92421 8.53601 5.92421H14.1623C15.7791 5.92421 17.0902 7.23498 17.0902 8.85178V14.4784Z" fill="#00C1EB"/>
</svg>
