<svg width="1440" height="388" viewBox="0 0 1440 388" fill="none" xmlns="http://www.w3.org/2000/svg">
<path d="M908.901 104.458C936.156 130.666 978.492 100.183 962.884 66.2524L1029.14 0H997.522L947.077 50.4452C913.146 34.8375 882.663 77.1735 908.901 104.458ZM924.703 72.8196C929.057 68.4596 936.187 68.4596 940.54 72.8196C944.9 77.1735 944.87 84.2668 940.51 88.6268C929.613 98.6953 914.664 83.7407 924.703 72.8196ZM1033 6.1197C1032.61 5.48475 1031.85 5.20053 1030.96 5.04331C1032.17 5.66616 1032.96 6.08342 1033 6.1197Z" fill="#00B5E1"/>
<path d="M110.831 80.3991C110.831 89.7185 114.197 98.245 119.844 104.803L104.627 131.169H0V156.227H111.881C116.346 156.227 120.498 153.862 122.723 149.974L141.529 117.391C164.264 121.808 186.262 103.621 185.998 80.3991C183.988 30.5545 112.889 30.5128 110.831 80.3991ZM148.393 92.9524C141.487 92.9524 135.889 87.3121 135.889 80.3991C136.584 63.7843 160.244 63.7843 160.947 80.3991C160.947 87.3121 155.348 92.9524 148.393 92.9524Z" fill="#00B5E1"/>
<path d="M460.736 274.651C431.366 246.407 385.742 279.258 402.562 315.823L331.164 387.221H365.234L419.596 332.858C456.162 349.678 489.013 304.055 460.736 274.651ZM443.708 308.746C439.016 313.445 431.333 313.445 426.641 308.746C421.942 304.054 421.975 296.41 426.673 291.711C438.417 280.861 454.526 296.977 443.708 308.746ZM327 380.626C327.424 381.311 328.238 381.617 329.196 381.786C327.893 381.115 327.039 380.665 327 380.626Z" fill="#00B5E1"/>
<path d="M1455.88 155.337C1457.14 155.988 1457.97 156.424 1458 156.462C1457.6 155.798 1456.81 155.501 1455.88 155.337ZM1440 131L1368.23 202.773C1332.78 186.472 1300.93 230.705 1328.34 259.205C1356.82 286.588 1401.06 254.739 1384.75 219.294L1440 164.043V131ZM1361.37 242.665C1349.98 253.184 1334.37 237.566 1344.85 226.149C1349.41 221.601 1356.85 221.601 1361.4 226.149C1365.96 230.705 1365.92 238.116 1361.37 242.665Z" fill="#00B5E1"/>
</svg>
