<svg width="20" height="20" viewBox="0 0 20 20" fill="none" xmlns="http://www.w3.org/2000/svg">
<path d="M9.43378 0.680115C14.0972 0.680115 17.8778 4.46078 17.8778 9.12418C17.8778 13.7876 14.0972 17.5678 9.43378 17.5678C4.77038 17.5678 0.989746 13.7876 0.989746 9.12418C0.989746 4.46078 4.77038 0.680115 9.43378 0.680115Z" stroke="white" stroke-miterlimit="10" stroke-linecap="round" stroke-linejoin="round"/>
<path d="M17.9399 16.2385C18.7083 16.2385 19.3317 16.8615 19.3317 17.6299C19.3317 18.3983 18.7083 19.0217 17.9399 19.0217C17.1716 19.0217 16.5482 18.3983 16.5482 17.6299C16.5482 17.6299 16.5482 17.6299 16.5482 17.6289C16.5492 16.8606 17.1716 16.2385 17.9399 16.2385Z" stroke="white" stroke-miterlimit="10" stroke-linecap="round" stroke-linejoin="round"/>
</svg>
