<svg width="16" height="16" viewBox="0 0 16 16" fill="none" xmlns="http://www.w3.org/2000/svg">
<path d="M8 1C2.75038 1 1 2.75038 1 8C1 13.2496 2.75038 15 8 15C13.2496 15 15 13.2496 15 8" stroke="white" stroke-miterlimit="10" stroke-linecap="round" stroke-linejoin="round"/>
<path d="M13.6969 2.17285C12.9454 1.50842 11.7974 1.5788 11.133 2.33026C11.133 2.33026 11.1322 2.33024 11.1322 2.331C11.1322 2.331 7.82592 6.06556 6.68094 7.36188C5.53597 8.6582 6.37825 10.4473 6.37825 10.4473C6.37825 10.4473 8.27014 11.0475 9.40527 9.76628L13.8596 4.73614C14.5225 3.98392 14.4498 2.83577 13.6969 2.17285Z" stroke="white" stroke-miterlimit="10" stroke-linecap="round" stroke-linejoin="round"/>
<path d="M10.2771 3.30872L13.0014 5.71755" stroke="white" stroke-miterlimit="10" stroke-linecap="round" stroke-linejoin="round"/>
</svg>
