<svg width="24" height="23" viewBox="0 0 24 23" fill="none" xmlns="http://www.w3.org/2000/svg">
<path d="M11.8281 22.6348C5.58772 22.6348 0.510498 17.558 0.510498 11.3172C0.510913 5.0768 5.58772 0 11.8281 0C18.0684 0 23.1453 5.0768 23.1453 11.3176C23.1457 17.558 18.0684 22.6348 11.8281 22.6348ZM11.8281 1.21581C6.25782 1.21581 1.72631 5.74732 1.72631 11.3176C1.72631 16.8878 6.25782 21.4194 11.8281 21.4194C17.3979 21.4194 21.9294 16.8878 21.9294 11.3176C21.9299 5.74732 17.3983 1.21581 11.8281 1.21581Z" fill="#00C1EB"/>
<path d="M18.6046 9.60124C18.6046 7.99606 17.3034 6.69482 15.6982 6.69482H8.15993C6.55474 6.69482 5.25351 7.99606 5.25351 9.60124V13.1342C5.25351 14.7394 6.55474 16.0407 8.15993 16.0407H15.6982C17.3034 16.0407 18.6046 14.7394 18.6046 13.1342V9.60124ZM13.8488 11.5456L10.8424 13.1944C10.7118 13.2649 10.594 13.1703 10.594 13.0219V9.63732C10.594 9.4868 10.7151 9.39225 10.8462 9.46689L13.8732 11.2027C14.0068 11.2786 13.984 11.4722 13.8488 11.5456Z" fill="#00C1EB"/>
</svg>
